<?xml version="1.0" standalone="no"?>
<!DOCTYPE svg PUBLIC "-//W3C//DTD SVG 20010904//EN"
 "http://www.w3.org/TR/2001/REC-SVG-20010904/DTD/svg10.dtd">
<svg version="1.0" xmlns="http://www.w3.org/2000/svg"
 width="260.000000pt" height="260.000000pt" viewBox="0 0 260.000000 260.000000"
 preserveAspectRatio="xMidYMid meet">
<metadata>
Created by potrace 1.11, written by Peter Selinger 2001-2013
</metadata>
<g transform="translate(0.000000,260.000000) scale(0.100000,-0.100000)"
fill="#000000" stroke="none">
<path d="M0 1300 l0 -1300 1300 0 1300 0 0 1300 0 1300 -1300 0 -1300 0 0
-1300z m1650 789 c28 -12 50 -23 50 -26 0 -2 -23 -42 -52 -89 -39 -64 -55 -83
-67 -78 -9 4 -36 11 -61 17 -124 27 -274 -82 -342 -248 -55 -133 -60 -186 -67
-705 l-6 -475 -102 -3 -103 -3 0 801 0 801 103 -3 102 -3 3 -113 3 -113 50 63
c146 183 326 247 489 177z"/>
</g>
</svg>
